<svg width="390" height="390" viewBox="0 0 390 390" fill="none" xmlns="http://www.w3.org/2000/svg">
<circle cx="195" cy="195" r="195" fill="white"/>
<circle cx="195" cy="195" r="189.5" stroke="black" stroke-opacity="0.04" stroke-width="11"/>
<path d="M184.759 226.202C176.775 227.058 170.786 225.347 165.654 221.64C157.67 215.651 157.1 206.243 157.1 205.672C157.1 203.962 158.239 202.251 160.236 201.965C161.947 201.965 163.657 203.105 163.944 205.102C163.944 205.386 164.514 211.945 170.217 216.222C174.779 219.643 181.621 220.214 190.747 218.503C192.457 217.933 194.454 219.359 194.454 221.069C195.025 222.78 193.599 224.777 191.888 224.777C189.036 225.632 186.755 225.918 184.758 226.203L184.759 226.202Z" fill="black"/>
<path d="M268.875 158.909C266.023 149.5 261.176 140.945 255.189 133.532C252.052 133.532 248.345 133.532 244.068 133.247C252.623 141.802 258.61 152.352 261.746 164.614L262.886 169.177L267.162 167.466C267.733 167.182 268.302 167.182 268.589 166.895C273.151 166.324 279.138 173.168 279.709 183.718C280.849 194.268 276.002 201.967 271.441 202.251C270.015 202.535 268.304 201.68 266.878 200.541L262.316 196.833L260.605 202.822C252.05 229.91 228.384 248.73 200.155 251.295C164.797 254.432 132.862 230.481 126.019 195.978L125.164 192.271L122.313 192.557H121.743C116.895 193.128 110.622 185.713 109.767 174.308C108.911 162.904 113.474 154.92 118.321 154.349C120.603 154.064 122.598 155.489 124.024 156.915L128.3 161.191L130.581 155.489C133.147 149.216 139.991 139.235 139.991 139.235C139.991 139.235 134.002 140.945 130.865 141.232H128.869C127.729 143.229 126.303 145.224 125.161 147.505C122.309 146.365 119.743 145.794 117.177 146.079C106.912 147.218 99.7836 159.765 101.21 174.877C102.35 188.563 110.049 199.115 119.174 200.539C128.3 237.608 163.085 262.699 201.58 259.278C231.52 256.712 256.897 237.321 267.162 209.378C268.872 210.233 270.869 210.518 272.864 210.233C282.845 209.378 289.687 197.116 288.547 182.859C287.408 168.604 278.568 158.054 268.874 158.91L268.875 158.909Z" fill="black"/>
<path d="M177.915 166.038C177.915 170.762 174.085 174.593 169.361 174.593C164.637 174.593 160.806 170.762 160.806 166.038C160.806 161.314 164.637 157.483 169.361 157.483C174.085 157.483 177.915 161.314 177.915 166.038Z" fill="black"/>
<path d="M225.534 166.038C225.534 170.762 221.703 174.593 216.979 174.593C212.255 174.593 208.424 170.762 208.424 166.038C208.424 161.314 212.255 157.483 216.979 157.483C221.703 157.483 225.534 161.314 225.534 166.038Z" fill="black"/>
<path d="M307.369 250.439C311.076 238.748 318.489 211.376 313.358 185.427C311.932 177.444 310.506 170.886 309.082 164.897C305.374 147.788 303.093 137.523 305.374 123.553H303.093H304.519L302.808 122.697L298.532 120.7L267.735 105.302C258.325 74.5082 225.535 53.4063 188.181 56.2577C151.112 59.1099 122.313 84.487 117.181 115.852L87.2407 136.669L82.678 139.805V140.09C80.1122 147.218 72.4129 172.88 76.9757 197.118C78.1154 203.675 79.2571 209.378 80.3967 214.227C83.5334 229.055 85.2439 237.61 83.249 250.154C77.26 271.54 70.989 292.925 65 314.596C150.257 339.689 240.646 339.689 325.903 314.596C319.632 293.212 313.359 271.827 307.37 250.439L307.369 250.439ZM88.6664 251.579C91.2322 237.893 89.2373 228.197 86.1006 213.084C84.9609 208.237 83.8192 202.534 82.6796 196.261C77.8324 170.028 88.6685 140.659 88.9526 140.374V139.803L117.751 137.522L138.566 135.811L248.63 127.259L270.871 125.548L298.53 123.551C296.533 138.093 298.814 149.213 302.521 166.037C303.948 172.026 305.374 178.584 306.798 186.567C312.216 214.797 301.951 245.877 299.385 252.72C230.101 271.253 157.385 270.969 88.6661 251.578L88.6664 251.579Z" fill="black"/>
</svg>
