<svg width="812" height="337" viewBox="0 0 812 337" fill="none" xmlns="http://www.w3.org/2000/svg">
<g clip-path="url(#clip0_4_27)">
<path d="M289 145.875H306V151.812C308.583 149.604 311.438 147.812 314.562 146.438C317.688 145.062 321.688 144.375 326.562 144.375C331.604 144.375 335.688 145.312 338.812 147.188C341.938 149.021 344.229 151.479 345.688 154.562C347.146 157.646 347.875 161.083 347.875 164.875V213H330.875V165.812C330.875 163.438 330.25 161.625 329 160.375C327.792 159.125 326.271 158.271 324.438 157.812C322.646 157.354 320.854 157.125 319.062 157.125C317.021 157.125 315 157.5 313 158.25C311 159 309.333 160.104 308 161.562C306.667 163.021 306 164.854 306 167.062V213H289V145.875ZM394.25 214.438C383.667 214.438 376.167 212.479 371.75 208.562C367.333 204.646 365.125 199.354 365.125 192.688V166.25C365.125 159.417 367.667 154.083 372.75 150.25C377.875 146.375 385.042 144.438 394.25 144.438C403.417 144.438 410.562 146.375 415.688 150.25C420.812 154.083 423.375 159.417 423.375 166.25V192.688C423.375 197.104 422.458 200.958 420.625 204.25C418.792 207.5 415.75 210.021 411.5 211.812C407.292 213.562 401.542 214.438 394.25 214.438ZM394.25 202.625C397.875 202.625 400.792 201.958 403 200.625C405.25 199.25 406.375 196.854 406.375 193.438V165.5C406.375 162.083 405.312 159.708 403.188 158.375C401.062 157 398.083 156.312 394.25 156.312C390.583 156.312 387.646 157 385.438 158.375C383.229 159.708 382.125 162.083 382.125 165.5V193.438C382.125 196.854 383.167 199.25 385.25 200.625C387.333 201.958 390.333 202.625 394.25 202.625ZM433 145.875H449.938L465.875 196.375L481.625 145.875H497.688L474.938 213H456.875L433 145.875ZM526.312 214.438C520.562 214.438 515.875 212.771 512.25 209.438C508.667 206.104 506.875 201.667 506.875 196.125C506.875 192.958 507.521 190.146 508.812 187.688C510.104 185.229 512.458 182.958 515.875 180.875C519.292 178.75 524.188 176.688 530.562 174.688C535.771 173.021 539.604 171.479 542.062 170.062C544.562 168.646 545.812 166.771 545.812 164.438C545.812 161.729 545 159.708 543.375 158.375C541.792 157 539.083 156.312 535.25 156.312C531 156.312 528.188 157.146 526.812 158.812C525.479 160.479 524.812 162.604 524.812 165.188V167.812H508.875V165.812C508.875 159.312 511.042 154.125 515.375 150.25C519.708 146.375 526.458 144.438 535.625 144.438C542.333 144.438 547.646 145.375 551.562 147.25C555.479 149.125 558.292 151.771 560 155.188C561.708 158.562 562.562 162.562 562.562 167.188V193.75C562.562 196.792 562.938 198.792 563.688 199.75C564.479 200.667 565.917 201.125 568 201.125L567.312 213.5H563.75C559.083 213.5 555.458 212.854 552.875 211.562C550.292 210.271 548.396 208.271 547.188 205.562C545.396 207.938 542.688 210.021 539.062 211.812C535.479 213.562 531.229 214.438 526.312 214.438ZM532 203.125C534.083 203.125 536.521 202.542 539.312 201.375C542.104 200.208 544.271 198.417 545.812 196V179C544.688 179.917 542.896 180.938 540.438 182.062C537.979 183.146 535.333 184.208 532.5 185.25C528.792 186.625 526.354 188.146 525.188 189.812C524.021 191.479 523.438 193.271 523.438 195.188C523.438 197.896 524.229 199.896 525.812 201.188C527.396 202.479 529.458 203.125 532 203.125Z" fill="#424143"/>
<path d="M614.188 214.438C610.521 214.438 607.208 213.875 604.25 212.75C601.333 211.625 598.792 210.354 596.625 208.938L594.938 213H583.25V118.25H600.25V148C602.292 146.917 604.479 146.062 606.812 145.438C609.146 144.771 611.729 144.438 614.562 144.438C621.062 144.438 626.229 145.438 630.062 147.438C633.938 149.438 636.708 152.083 638.375 155.375C640.042 158.625 640.875 162.146 640.875 165.938V192.438C640.875 198.979 638.458 204.292 633.625 208.375C628.833 212.417 622.354 214.438 614.188 214.438ZM611.375 202.5C615.042 202.5 618.042 201.729 620.375 200.188C622.708 198.646 623.875 196.188 623.875 192.812V165.625C623.875 162.292 622.875 159.917 620.875 158.5C618.875 157.042 615.979 156.312 612.188 156.312C609.146 156.312 606.562 156.75 604.438 157.625C602.312 158.458 600.917 159.062 600.25 159.438V199.5C602.875 201.5 606.583 202.5 611.375 202.5ZM656.375 192V165.812C656.375 158.979 658.958 153.708 664.125 150C669.333 146.292 676.292 144.438 685 144.438C695.333 144.438 702.667 146.417 707 150.375C711.375 154.333 713.562 159.688 713.562 166.438V182.688H673.375V193.625C673.375 197.583 674.396 200.083 676.438 201.125C678.479 202.125 681.521 202.625 685.562 202.625C690.396 202.625 693.625 201.958 695.25 200.625C696.917 199.25 697.75 196.5 697.75 192.375H713.5C713.5 200.667 711.167 206.417 706.5 209.625C701.833 212.833 694.75 214.438 685.25 214.438C679.792 214.438 674.875 213.771 670.5 212.438C666.125 211.062 662.667 208.75 660.125 205.5C657.625 202.25 656.375 197.75 656.375 192ZM697.5 172.312V164.438C697.5 161.938 696.958 160.125 695.875 159C694.833 157.833 693.396 157.104 691.562 156.812C689.771 156.479 687.729 156.312 685.438 156.312C682.021 156.312 679.146 156.833 676.812 157.875C674.521 158.875 673.375 161.167 673.375 164.75V172.312H697.5ZM728.25 192V165.812C728.25 158.979 730.833 153.708 736 150C741.208 146.292 748.167 144.438 756.875 144.438C767.208 144.438 774.542 146.417 778.875 150.375C783.25 154.333 785.438 159.688 785.438 166.438V182.688H745.25V193.625C745.25 197.583 746.271 200.083 748.312 201.125C750.354 202.125 753.396 202.625 757.438 202.625C762.271 202.625 765.5 201.958 767.125 200.625C768.792 199.25 769.625 196.5 769.625 192.375H785.375C785.375 200.667 783.042 206.417 778.375 209.625C773.708 212.833 766.625 214.438 757.125 214.438C751.667 214.438 746.75 213.771 742.375 212.438C738 211.062 734.542 208.75 732 205.5C729.5 202.25 728.25 197.75 728.25 192ZM769.375 172.312V164.438C769.375 161.938 768.833 160.125 767.75 159C766.708 157.833 765.271 157.104 763.438 156.812C761.646 156.479 759.604 156.312 757.312 156.312C753.896 156.312 751.021 156.833 748.688 157.875C746.396 158.875 745.25 161.167 745.25 164.75V172.312H769.375Z" fill="#FAB040"/>
<path d="M258.025 216.844C252.387 225.729 247.199 234.947 240.964 243.392C236.207 249.836 230.122 255.302 224.367 261.072C217.977 247.021 212.01 233.027 205.667 219.204C200.962 208.952 196.658 198.358 190.638 188.894C167.187 152.026 133.787 127.643 92.6195 113.785C81.2947 109.972 69.5483 107.411 57.9954 104.275C69.4346 89.3607 82.8045 76.7731 100.87 69.2209C102.199 69.5195 102.976 69.8217 103.775 70.0506C125.802 76.3655 146.36 85.8422 165.285 98.7702C190.602 116.065 211.956 137.306 227.851 163.592C236.22 177.433 243.483 191.941 251.34 206.095C253.386 209.78 255.787 213.266 258.025 216.844Z" fill="#FAB040"/>
<path d="M57.809 104.441C69.5483 107.411 81.2947 109.972 92.6195 113.785C133.787 127.643 167.187 152.026 190.638 188.894C196.658 198.358 200.962 208.952 205.667 219.204C212.01 233.027 217.977 247.021 224.188 261.18C213.288 270.649 200.376 276.362 187.259 281.701C186.271 282.103 185.279 282.495 183.994 282.67C177.196 264.907 169.541 247.906 159.931 231.821C148.371 212.472 134.252 195.28 117.297 180.357C94.5966 160.376 67.2802 149.126 39.5213 138.637C44.1618 126.553 50.1472 115.184 57.809 104.441Z" fill="#424142"/>
<path d="M39.4188 138.871C67.2802 149.126 94.5966 160.376 117.297 180.357C134.252 195.28 148.371 212.472 159.931 231.821C169.541 247.906 177.196 264.907 183.738 282.698C175.179 284.409 166.619 286.174 157.973 287.231C151.417 288.033 144.75 287.933 137.735 287.924C135.603 283.829 133.929 280.017 132.124 276.267C118.999 248.995 101.905 224.88 77.04 206.901C64.2312 197.639 50.1242 190.895 35.5248 185.06C35.6187 178.661 35.328 172.228 35.899 165.872C36.7034 156.92 38.1464 148.025 39.4188 138.871Z" fill="#FAAF40"/>
<path d="M258.123 216.551C255.787 213.266 253.386 209.78 251.34 206.095C243.483 191.941 236.22 177.433 227.851 163.592C211.956 137.306 190.602 116.065 165.285 98.7702C146.36 85.8422 125.802 76.3655 103.775 70.0506C102.976 69.8217 102.199 69.5195 101.138 69.1809C119.733 60.1457 139.541 56.6891 160.375 58.5078C187.157 60.8456 210.455 70.9367 230.015 89.3525C251.018 109.127 262.786 133.243 264.332 162.302C265.31 180.685 263.018 198.585 258.123 216.551Z" fill="#424143"/>
<path d="M35.4744 185.403C50.1242 190.895 64.2312 197.639 77.04 206.901C101.905 224.88 118.999 248.995 132.124 276.267C133.929 280.017 135.603 283.829 137.412 287.868C117.841 288.118 98.1963 288.139 78.5517 288.096C65.9296 288.069 53.3077 287.95 40.6858 287.858C39.403 287.848 38.1209 287.745 36.5585 287.672C36.1782 253.504 35.8011 219.625 35.4744 185.403Z" fill="#424142"/>
</g>
<defs>
<clipPath id="clip0_4_27">
<rect width="812" height="337" fill="white"/>
</clipPath>
</defs>
</svg>
