<svg width="50" height="50" viewBox="0 0 279 296" fill="none" xmlns="http://www.w3.org/2000/svg">
<path d="M258.025 196.844C252.387 205.729 247.199 214.947 240.964 223.392C236.207 229.836 230.122 235.302 224.367 241.072C217.977 227.021 212.01 213.027 205.667 199.204C200.962 188.952 196.658 178.358 190.638 168.894C167.187 132.026 133.787 107.643 92.6195 93.7847C81.2947 89.9723 69.5483 87.4107 57.9954 84.2752C69.4346 69.3607 82.8045 56.7731 100.87 49.2209C102.199 49.5195 102.976 49.8217 103.775 50.0506C125.802 56.3655 146.36 65.8422 165.285 78.7702C190.602 96.0649 211.956 117.306 227.851 143.592C236.22 157.433 243.483 171.941 251.34 186.095C253.386 189.78 255.787 193.266 258.025 196.844Z" fill="#FAB040"/>
<path d="M57.809 84.4407C69.5483 87.4107 81.2947 89.9723 92.6194 93.7847C133.787 107.643 167.187 132.026 190.638 168.894C196.658 178.358 200.962 188.952 205.667 199.204C212.01 213.027 217.977 227.021 224.188 241.18C213.288 250.649 200.376 256.362 187.259 261.701C186.271 262.103 185.279 262.495 183.994 262.67C177.196 244.907 169.541 227.906 159.931 211.821C148.371 192.472 134.252 175.28 117.297 160.357C94.5965 140.376 67.2802 129.126 39.5212 118.637C44.1617 106.553 50.1472 95.1837 57.809 84.4407Z" fill="#424142"/>
<path d="M39.4188 118.871C67.2802 129.126 94.5966 140.376 117.297 160.357C134.252 175.28 148.371 192.472 159.931 211.821C169.541 227.906 177.196 244.907 183.738 262.698C175.179 264.409 166.619 266.174 157.973 267.231C151.417 268.033 144.75 267.933 137.735 267.924C135.603 263.829 133.929 260.017 132.124 256.267C118.999 228.995 101.905 204.88 77.04 186.901C64.2312 177.639 50.1242 170.895 35.5248 165.06C35.6187 158.661 35.328 152.228 35.899 145.872C36.7034 136.92 38.1464 128.025 39.4188 118.871Z" fill="#FAAF40"/>
<path d="M258.123 196.551C255.787 193.266 253.386 189.78 251.34 186.095C243.483 171.941 236.22 157.433 227.851 143.592C211.956 117.306 190.602 96.0649 165.285 78.7702C146.36 65.8422 125.802 56.3655 103.775 50.0506C102.976 49.8217 102.199 49.5195 101.138 49.1809C119.733 40.1457 139.541 36.6891 160.375 38.5078C187.157 40.8456 210.455 50.9367 230.015 69.3525C251.018 89.1266 262.786 113.243 264.332 142.302C265.31 160.685 263.018 178.585 258.123 196.551Z" fill="#424143"/>
<path d="M35.4744 165.403C50.1242 170.895 64.2312 177.639 77.04 186.901C101.905 204.88 118.999 228.995 132.124 256.267C133.929 260.017 135.603 263.829 137.412 267.868C117.841 268.118 98.1963 268.139 78.5517 268.096C65.9296 268.069 53.3077 267.95 40.6858 267.858C39.403 267.848 38.1209 267.745 36.5585 267.672C36.1782 233.504 35.8011 199.625 35.4744 165.403Z" fill="#424142"/>
</svg>
